# xmcd CD database file
#
# Track frame offsets:
#	150
#	20698
#	46748
#	63368
#	85240
#	108960
#	127878
#	137633
#	153780
#
# Disc length: 2583 seconds
#
# Revision: 0
# Processed by: cddbd v1.5PL3 Copyright (c) Steve Scherf et al.
# Submitted via: CDex 1.40Release
#
DISCID=670a1509
DTITLE=Rafael Cameron - Cameron's in Love
DYEAR=1981
DGENRE=Soul
TTITLE0=Number One
TTITLE1=All That's Good to Me
TTITLE2=Let's Get Married
TTITLE3=Boogies Gonna Get Ya'
TTITLE4=Funtown U.S.A.
TTITLE5=I'd Go Crazy
TTITLE6=Daisy
TTITLE7=In Love
TTITLE8=All That's Good to Me (12inch mix)
EXTD=\n\n YEAR: 1981 ID3G: 42
EXTT0=
EXTT1=
EXTT2=
EXTT3=
EXTT4=
EXTT5=
EXTT6=
EXTT7=
EXTT8=
PLAYORDER=
